<?xml version="1.0" encoding="UTF-8"?>
<svg width="32px" height="32px" viewBox="0 0 32 32" version="1.1" xmlns="http://www.w3.org/2000/svg" xmlns:xlink="http://www.w3.org/1999/xlink">
    <title>形状</title>
    <g id="funcss" stroke="none" stroke-width="1" fill="none" fill-rule="evenodd">
        <g id="funcss改版" transform="translate(-60, -1500)" fill="#C71D23" fill-rule="nonzero">
            <g id="编组" transform="translate(60, 1500)">
                <path d="M15.9786667,0 C7.150443,0.0117745309 0,7.17177204 0,16 C0,24.8365596 7.163444,32 16,32 C20.2434638,32 24.3131264,30.3142941 27.3137085,27.3137121 C30.3142906,24.31313 32,20.2434674 32,16 C32,7.16344756 24.836556,0 16,0 C15.9928889,0 15.9857778,0 15.9786667,0 Z M24.0986667,7.11067022 C24.536,7.11067022 24.8893333,7.46533689 24.888,7.90133689 L24.888,9.87733689 C24.8865331,10.3131848 24.5331831,10.6659389 24.0973333,10.6666702 L13.036,10.6666702 C11.7266667,10.6666702 10.6653333,11.7280036 10.6653333,13.0373369 L10.6653333,20.5440036 C10.6653333,20.9800036 11.02,21.3333369 11.456,21.3333369 L18.9626667,21.3333369 C20.272,21.3333369 21.3333333,20.2720036 21.3333333,18.9626702 L21.3333333,18.5680036 C21.333334,18.1318506 20.9801524,17.7780724 20.544,17.7773369 L15.0106667,17.7773369 C14.5747299,17.7773369 14.2213333,17.4239403 14.2213333,16.9880036 L14.2213333,15.0120036 C14.2220688,14.5758512 14.575847,14.2226696 15.012,14.2226702 L24.0986667,14.2226702 C24.5346667,14.2226702 24.8893333,14.5760036 24.8893333,15.0120036 L24.8893333,19.5560036 C24.8893333,22.5015222 22.5015187,24.8893369 19.556,24.8893369 L7.90133333,24.8893369 C7.46466019,24.8893369 7.11066667,24.5353434 7.11066667,24.0986702 L7.11066667,13.0373369 C7.11066667,11.4656097 7.73512405,9.95827592 8.846628,8.84702203 C9.95813194,7.73576814 11.4656062,7.11164988 13.0373333,7.11200356 L24.0986667,7.11200356 L24.0986667,7.11067022 Z" id="形状"></path>
            </g>
        </g>
    </g>
</svg>