<?xml version="1.0" encoding="UTF-8"?>
<svg width="32px" height="32px" viewBox="0 0 32 32" version="1.1" xmlns="http://www.w3.org/2000/svg" xmlns:xlink="http://www.w3.org/1999/xlink">
    <title>形状</title>
    <g id="funcss" stroke="none" stroke-width="1" fill="none" fill-rule="evenodd">
        <g id="funcss改版" transform="translate(-124, -1500)" fill="#07C160">
            <g id="gzh" transform="translate(124, 1500)">
                <path d="M13.0967008,8.3444 C13.1902008,8.27971 13.2837008,8.20964 13.3772008,8.13956 C13.5641008,7.99941 13.7511008,7.85926 13.9381008,7.76223 C13.9381008,7.76223 13.9848008,7.76223 13.9848008,7.71372 C14.1784008,7.57974 14.3720008,7.46889 14.5810008,7.34923 L14.5810008,7.34922 C14.6748008,7.29557 14.7716008,7.24014 14.8729008,7.18006 C14.8962008,7.18006 14.9079008,7.16793 14.9196008,7.15581 C14.9313008,7.14368 14.9430008,7.13155 14.9663008,7.13155 C15.5740008,6.79195 16.1816008,6.54938 16.8360008,6.30681 C16.8593008,6.30681 16.8827008,6.29468 16.9061008,6.28256 C16.9294008,6.27043 16.9528008,6.2583 16.9762008,6.2583 C17.3034008,6.16127 17.6305008,6.06424 17.9110008,5.96722 C17.9577008,5.96722 18.0045008,5.96722 18.0045008,5.9187 C18.2849008,5.82167 18.6121008,5.77316 18.9393008,5.72465 C18.9860008,5.72465 19.0328008,5.72465 19.0795008,5.67613 L20.0610008,5.53059 L20.2480008,5.53059 C20.5752008,5.48208 20.9491008,5.48208 21.2763008,5.48208 C21.6502008,5.48208 22.0241008,5.48208 22.3981008,5.53059 L22.5850008,5.53059 C22.7720008,5.55485 22.9473008,5.5791 23.1225008,5.60336 C23.2978008,5.62762 23.4731008,5.65187 23.6600008,5.67613 C23.7068008,5.67613 23.8003008,5.67613 23.8470008,5.72465 C24.1742008,5.77316 24.5481008,5.87019 24.8753008,5.96722 C24.8987008,5.96722 24.9220008,5.97934 24.9454008,5.99147 C24.9688008,6.0036 24.9921008,6.01573 25.0155008,6.01573 C25.3894008,6.11276 25.7166008,6.20978 26.0438008,6.35533 C25.9815008,6.24212 25.9295008,6.14508 25.8863008,6.06422 L25.8862008,6.06419 C25.7997008,5.90251 25.7478008,5.8055 25.7166008,5.77316 C23.5666008,2.13461 19.8741008,0 15.8544008,0 C13.4239008,0 9.73144077,0.873251 6.97376077,4.31774 C5.15089077,6.64641 4.49652077,9.36319 4.91719077,12.0315 C5.19763077,13.875 6.17917077,16.3492 7.62812077,17.9016 C8.09553077,13.972 10.1521008,10.576 13.0967008,8.3444 Z M29.8298008,12.2741 C26.9319008,8.39296 21.9307008,7.27714 17.4436008,9.02364 L17.8642008,9.16918 C24.5481008,11.5464 28.1471008,19.066 25.9036008,25.955 C25.2960008,27.7985 24.3611008,29.3995 23.1926008,30.7094 C24.6416008,30.2727 26.0905008,29.6906 27.3525008,28.6718 C32.4472008,24.6451 33.4755008,17.174 29.8298008,12.2741 Z M12.8630008,24.354 C13.7978008,24.5966 14.7794008,24.6936 15.8077008,24.6936 C18.9393008,24.6936 21.3698008,23.9659 23.7068008,22.1709 C23.6600008,23.1897 23.3796008,24.354 23.0992008,25.0817 C20.9491008,30.9034 14.6392008,33.4261 8.04878077,31.1945 C2.29972077,29.2539 -1.20579923,22.2679 0.383372774,16.4462 C0.804034774,14.8938 1.22470077,13.8265 2.06602077,12.4681 C2.53343077,16.2037 4.77696077,19.8907 8.09552077,22.1224 C8.32922077,22.3164 8.51618077,22.6075 8.51618077,22.9471 C8.51618077,23.0926 8.51618077,23.1897 8.46944077,23.2867 C8.23574077,24.257 7.90856077,25.8094 7.90856077,25.9065 C7.90856077,25.9792 7.89687077,26.0399 7.88519077,26.1005 C7.87350077,26.1611 7.86182077,26.2218 7.86182077,26.2946 C7.86182077,26.5856 8.09552077,26.7797 8.37596077,26.7797 C8.46944077,26.7797 8.56292077,26.7312 8.65640077,26.6827 L11.7413008,24.5966 C11.9750008,24.4025 12.2087008,24.3055 12.4891008,24.3055 C12.6293008,24.3055 12.7695008,24.3055 12.8630008,24.354 Z" id="形状"></path>
            </g>
        </g>
    </g>
</svg>