<?xml version="1.0" encoding="UTF-8"?>
<svg width="32px" height="32px" viewBox="0 0 32 32" version="1.1" xmlns="http://www.w3.org/2000/svg" xmlns:xlink="http://www.w3.org/1999/xlink">
    <title>tg</title>
    <g id="funcss" stroke="none" stroke-width="1" fill="none" fill-rule="evenodd">
        <g id="funcss改版" transform="translate(-254, -1500)" fill="#1296DB" fill-rule="nonzero">
            <g id="tg" transform="translate(254, 1500)">
                <path d="M21.232,23.3394375 L23.8571562,10.9645625 C24.0891562,9.8754375 23.464,9.44684375 22.7497187,9.71428125 L7.32115625,15.6605625 C6.26740625,16.070875 6.28571875,16.6605625 7.14284375,16.928 L11.0891563,18.16 L20.2502813,12.392 C20.6788438,12.1062812 21.072,12.2674375 20.7508438,12.5531562 L13.3405625,19.2491562 L13.0548437,23.3211562 C13.4651562,23.3211562 13.6445625,23.1428437 13.8582812,22.928 L15.7862812,21.0708437 L19.7862812,24.0171562 C20.5188437,24.4274375 21.0365937,24.2137187 21.2331562,23.3382812 L21.232,23.3394375 Z M32,16 C32,24.8388438 24.8388437,32 16,32 C7.16115625,32 0,24.8388437 0,16 C0,7.16115625 7.16115625,0 16,0 C24.8388437,0 32,7.16115625 32,16 Z" id="形状"></path>
            </g>
        </g>
    </g>
</svg>