<?xml version="1.0" encoding="UTF-8"?>
<svg width="32px" height="26px" viewBox="0 0 32 26" version="1.1" xmlns="http://www.w3.org/2000/svg" xmlns:xlink="http://www.w3.org/1999/xlink">
    <title>wb</title>
    <g id="funcss" stroke="none" stroke-width="1" fill="none" fill-rule="evenodd">
        <g id="funcss改版" transform="translate(-188, -1503)" fill-rule="nonzero">
            <g id="wb" transform="translate(188, 1503)">
                <path d="M27.2487502,15.7619844 C26.5138205,13.5689496 24.2560207,12.7680298 23.7419077,12.720317 C23.227927,12.6725711 22.7620566,12.3911946 23.1030327,11.8096015 C23.4441413,11.2279753 24.0733147,9.53541185 22.8630448,8.34351848 C21.6523776,7.14689025 19.0052267,7.59978125 17.1317452,8.37219252 C15.2631642,9.14457068 15.3639538,8.60578998 15.4215668,8.07667767 C15.4841464,7.51882508 16.4928703,4.40070462 13.4087216,4.02406803 C9.3686941,3.53303326 4.18534694,8.49615977 2.35504215,11.3568098 C-0.412102689,15.6763596 0.0252261897,18.598927 0.0252261897,18.598927 L0.0444305166,18.598927 C0.375837599,22.6324648 6.3615614,25.8458784 13.6969852,25.8458784 C20.0046132,25.8458784 25.3176227,23.4667603 26.8884373,20.2343079 C26.8884373,20.2343079 26.8931722,20.2199709 26.9074761,20.1960317 C27.0709777,19.8481685 27.1958721,19.49514 27.2728549,19.1280725 C27.4936385,18.2604011 27.6620737,17.0018555 27.2487502,15.7620175 L27.2487502,15.7619844 Z M12.7892165,24.0817624 C7.56729513,24.0817624 3.33029085,21.2973005 3.33029085,17.8645933 C3.33029085,14.4319523 7.56252716,11.6476891 12.7892165,11.6476891 C18.0109723,11.6476891 22.248109,14.4319523 22.248109,17.8645933 C22.248109,21.3020023 18.0109723,24.0817624 12.7892165,24.0817624 Z" id="形状" fill="#E71F19"></path>
                <path d="M25.6493609,10.3031214 C25.7452501,10.3460993 25.8462052,10.3650057 25.9471604,10.3650057 C26.2449268,10.3650057 26.5332235,10.1885907 26.6531843,9.89774452 C26.8501942,9.43538379 26.9509507,8.94438213 26.9509507,8.43407681 C26.9509507,6.36504237 25.2554073,4.68191556 23.1703141,4.68191556 C22.6611014,4.68191556 22.1663913,4.78197673 21.7003222,4.97746353 C21.3111034,5.13957454 21.1287286,5.58776379 21.2918991,5.9787374 C21.4552352,6.36487681 21.9068349,6.5460597 22.3006229,6.3839487 C22.5793837,6.26938495 22.8723821,6.20746755 23.175082,6.20746755 C24.4144564,6.20746755 25.4184123,7.20877454 25.4184123,8.43407681 C25.4184123,8.73432653 25.3609649,9.0253383 25.2406398,9.30164883 C25.1596301,9.48831692 25.1572933,9.69976072 25.2341577,9.88817359 C25.3110221,10.0765865 25.4605966,10.2260569 25.6490629,10.3027903 L25.649394,10.3031214 L25.6493609,10.3031214 Z" id="路径" fill="#F5AA15"></path>
                <path d="M23.1271705,0 C22.2673134,0 21.4169921,0.123967241 20.6003116,0.36229956 C19.9903093,0.543482451 19.6444659,1.17755635 19.8222052,1.78308864 C20.0046132,2.38868715 20.6434882,2.73194794 21.2538216,2.55553302 C21.8624511,2.37815046 22.4932191,2.2882478 23.1271705,2.28852666 C26.7446366,2.28852666 29.6893884,5.21125965 29.6893884,8.8013099 C29.6893884,9.44485351 29.5932012,10.0836623 29.4106276,10.6939294 C29.2282527,11.2994948 29.5692289,11.9385022 30.179198,12.1194534 C30.2898547,12.1530278 30.4049151,12.1671993 30.5155718,12.1671993 C31.0103481,12.1671993 31.4666826,11.8477452 31.6204828,11.3566443 C31.8703708,10.531984 32,9.67374922 32,8.8013099 C31.9952651,3.94764806 28.0174862,0 23.1271705,0 L23.1271705,0 Z" id="路径" fill="#F5AA15"></path>
                <path d="M11.9148898,13.9169452 C9.12857379,13.9169452 6.87077406,15.8763826 6.87077406,18.2986442 C6.87077406,20.7204092 9.12857379,22.6801445 11.9148898,22.6801445 C14.7011066,22.6801445 16.9589063,20.7205747 16.9589063,18.2986442 C16.9589063,15.8765813 14.7010735,13.9169452 11.9148898,13.9169452 Z M10.2671586,21.1448248 C9.2919099,21.1448248 8.4993672,20.3582751 8.4993672,19.3903771 C8.4993672,18.4226114 9.29207546,17.6358631 10.2671586,17.6358631 C11.2423742,17.6358631 12.03495,18.4225783 12.03495,19.3903771 C12.03495,20.3581096 11.2423742,21.1448248 10.2671586,21.1448248 Z M13.5722895,17.9838919 C13.3609757,18.3509594 12.9333814,18.5036007 12.6211455,18.3222523 C12.3089097,18.1460029 12.2320923,17.7025154 12.4433399,17.3354479 C12.6547862,16.9682479 13.0822811,16.8156066 13.3944508,16.9969219 C13.7066867,17.1781048 13.7836695,17.6215261 13.5722564,17.9838919 L13.5722895,17.9838919 Z" id="形状" fill="#040000"></path>
            </g>
        </g>
    </g>
</svg>